<svg width="488.3999999999999" height="185.66099045001496" viewBox="0 0 350 133.04944033068233" class="looka-1j8o68f"><defs id="SvgjsDefs1176"></defs><g id="SvgjsG1177" featurekey="1p4tPl-0" transform="matrix(0.20957538088646138,0,0,0.20957538088646138,98.50316159358643,-12.026485278804165)" fill="#000"><g xmlns="http://www.w3.org/2000/svg"><g enable-background="new    "><g><path d="M688.651,275.078c3.591,8.617,3.312,15.824-0.854,22.043c-10.332,15.426-42.039,20.833-59.211,21.595l-351.479-0.009     c-58.562,0-117.135,0.009-175.697,0.009c-17.173-0.762-48.88-6.169-59.221-21.595c-4.157-6.219-4.437-13.426-0.826-22.095     l23.849-59.624c14.877-37.193,29.763-74.377,44.622-111.533c10.647-25.938,42.841-46.355,73.278-46.484h363.753     c30.438,0.129,62.632,20.547,73.287,46.449c13.843,34.631,27.701,69.253,41.553,103.885L688.651,275.078z M455.901,188.954      M455.901,188.954l8.73-3.667l-8.838-3.418c-47.565-18.384-90.854-36.283-132.346-54.729l-5.31-2.363l-0.36,5.617     c-2.339,36.533-4.671,73.068-7.019,109.604l-0.378,5.969l5.805-2.145"></path></g><path d="M698.4,332.231c0.102-0.421,0.187-0.846,0.268-1.272c0.05-0.265,0.105-0.529,0.148-0.797    c0.074-0.47,0.126-0.946,0.176-1.423c0.023-0.229-0.02-0.456-0.002-0.687c0.055-0.709,0.01-1.424,0.01-2.146v-39.691    c0,0.723,0.045,1.438-0.01,2.146c-0.018,0.23-0.013,0.456-0.036,0.685c-0.05,0.478-0.083,0.954-0.157,1.425    c-0.043,0.268-0.089,0.531-0.139,0.797c-0.081,0.426-0.161,0.851-0.263,1.271c-0.066,0.278-0.141,0.554-0.217,0.83    c-0.111,0.401-0.229,0.8-0.359,1.196c-0.105,0.319-0.215,0.638-0.332,0.953c-0.088,0.236-0.177,0.473-0.271,0.708    c-0.145,0.355-0.301,0.708-0.461,1.059c-0.103,0.223-0.2,0.446-0.309,0.668c-0.188,0.381-0.39,0.757-0.597,1.133    c-0.101,0.184-0.193,0.369-0.299,0.551c-0.32,0.555-0.659,1.105-1.022,1.647c-0.155,0.231-0.328,0.454-0.49,0.682    c-0.262,0.366-0.524,0.731-0.805,1.089c-0.17,0.217-0.35,0.429-0.526,0.643c-0.265,0.32-0.533,0.639-0.812,0.951    c-0.195,0.219-0.396,0.434-0.6,0.648c-0.282,0.3-0.569,0.597-0.864,0.889c-0.213,0.211-0.429,0.42-0.648,0.627    c-0.309,0.291-0.624,0.577-0.946,0.861c-0.24,0.212-0.479,0.425-0.727,0.633c-0.19,0.161-0.385,0.319-0.579,0.478    c-0.311,0.252-0.626,0.502-0.947,0.748c-0.199,0.153-0.398,0.306-0.602,0.457c-0.341,0.252-0.688,0.5-1.038,0.746    c-0.191,0.134-0.379,0.27-0.573,0.401c-0.431,0.294-0.871,0.582-1.316,0.866c-0.12,0.076-0.235,0.155-0.356,0.231    c-0.57,0.358-1.152,0.709-1.744,1.053c-0.156,0.09-0.316,0.176-0.474,0.266c-0.44,0.251-0.885,0.499-1.337,0.742    c-0.222,0.118-0.447,0.234-0.671,0.352c-0.399,0.208-0.801,0.415-1.208,0.617c-0.241,0.12-0.484,0.239-0.729,0.357    c-0.404,0.195-0.812,0.387-1.223,0.577c-0.244,0.112-0.488,0.226-0.734,0.336c-0.437,0.196-0.877,0.387-1.32,0.577    c-0.223,0.095-0.444,0.192-0.669,0.286c-0.562,0.234-1.13,0.463-1.701,0.688c-0.108,0.042-0.214,0.087-0.323,0.129    c-0.687,0.267-1.38,0.526-2.079,0.778c-0.183,0.066-0.368,0.129-0.552,0.194c-0.516,0.183-1.033,0.364-1.555,0.539    c-0.251,0.085-0.504,0.166-0.757,0.249c-0.464,0.152-0.93,0.303-1.398,0.449c-0.268,0.084-0.536,0.166-0.805,0.248    c-0.464,0.141-0.93,0.279-1.397,0.415c-0.266,0.077-0.53,0.154-0.797,0.229c-0.499,0.141-1,0.277-1.502,0.412    c-0.231,0.062-0.462,0.126-0.694,0.188c-0.668,0.175-1.337,0.345-2.009,0.509c-0.065,0.017-0.13,0.033-0.195,0.049    c-0.746,0.182-1.495,0.355-2.245,0.524c-0.195,0.044-0.392,0.085-0.588,0.128c-0.549,0.12-1.099,0.239-1.648,0.353    c-0.26,0.055-0.52,0.105-0.78,0.158c-0.49,0.099-0.98,0.195-1.472,0.288c-0.274,0.052-0.548,0.104-0.822,0.153    c-0.49,0.091-0.979,0.178-1.47,0.263c-0.261,0.045-0.522,0.091-0.784,0.135c-0.526,0.088-1.052,0.172-1.577,0.255    c-0.22,0.034-0.44,0.07-0.66,0.104c-0.733,0.111-1.466,0.219-2.195,0.318c-0.007,0.001-0.014,0.002-0.021,0.003    c-0.745,0.103-1.487,0.197-2.228,0.288c-0.208,0.025-0.415,0.048-0.622,0.072c-0.524,0.062-1.048,0.121-1.568,0.178    c-0.258,0.027-0.516,0.053-0.772,0.079c-0.472,0.048-0.941,0.095-1.409,0.138c-0.268,0.025-0.533,0.049-0.799,0.072    c-0.462,0.04-0.92,0.078-1.377,0.113c-0.259,0.021-0.519,0.041-0.776,0.06c-0.485,0.035-0.967,0.066-1.447,0.097    c-0.217,0.014-0.435-0.17-0.649-0.158c-0.691,0.041-1.379-0.094-2.058-0.094H277.108c-58.59,0-117.197,0.199-175.788,0.207    c-23.392-1.021-54.446-8.109-65.777-25.022c-3.079-4.6-4.543-9.534-4.543-14.955v39.691c0,5.422,1.464,10.455,4.543,15.056    c11.331,16.912,42.423,24.056,65.815,25.075c58.591-0.006,117.16-0.052,175.75-0.052h351.747c0.677,0,1.362-0.02,2.052-0.06    c0.226-0.014,0.455-0.007,0.682-0.021c0.467-0.029,0.934-0.049,1.405-0.083c0.276-0.021,0.556-0.036,0.834-0.058    c0.429-0.034,0.859-0.066,1.292-0.104c0.295-0.025,0.59-0.05,0.886-0.077c0.431-0.041,0.863-0.083,1.297-0.127    c0.292-0.029,0.584-0.058,0.877-0.09c0.467-0.05,0.936-0.104,1.405-0.158c0.261-0.031,0.521-0.06,0.783-0.092    c0.695-0.085,1.393-0.175,2.093-0.27c0.169-0.023,0.338-0.049,0.507-0.072c0.588-0.082,1.176-0.166,1.766-0.256    c0.284-0.043,0.569-0.09,0.854-0.135c0.456-0.072,0.912-0.145,1.368-0.221c0.315-0.053,0.63-0.107,0.944-0.163    c0.431-0.074,0.86-0.151,1.291-0.229c0.322-0.06,0.646-0.119,0.968-0.182c0.432-0.082,0.863-0.167,1.295-0.253    c0.315-0.063,0.632-0.126,0.948-0.191c0.461-0.096,0.921-0.196,1.382-0.296c0.281-0.062,0.562-0.121,0.843-0.184    c0.721-0.162,1.44-0.33,2.157-0.504c0.195-0.047,0.39-0.099,0.585-0.146c0.539-0.134,1.078-0.27,1.614-0.409    c0.293-0.077,0.585-0.157,0.877-0.236c0.438-0.118,0.875-0.237,1.311-0.36c0.312-0.088,0.622-0.178,0.933-0.269    c0.418-0.121,0.834-0.245,1.249-0.371c0.311-0.094,0.62-0.189,0.929-0.286c0.419-0.131,0.837-0.266,1.253-0.402    c0.295-0.096,0.591-0.191,0.884-0.291c0.457-0.153,0.91-0.312,1.363-0.473c0.245-0.086,0.493-0.17,0.737-0.259    c0.68-0.245,1.354-0.497,2.021-0.757c0.179-0.069,0.353-0.142,0.529-0.212c0.501-0.198,1.001-0.398,1.494-0.604    c0.257-0.106,0.51-0.218,0.765-0.326c0.41-0.176,0.818-0.354,1.222-0.534c0.27-0.121,0.536-0.244,0.803-0.367    c0.387-0.179,0.771-0.36,1.152-0.544c0.262-0.127,0.523-0.254,0.782-0.383c0.388-0.193,0.77-0.39,1.149-0.588    c0.241-0.126,0.483-0.25,0.722-0.379c0.429-0.23,0.85-0.466,1.269-0.704c0.179-0.101,0.36-0.198,0.536-0.301    c0.586-0.34,1.162-0.688,1.728-1.042c0.139-0.087,0.271-0.178,0.408-0.266c0.428-0.273,0.853-0.551,1.268-0.833    c0.199-0.136,0.394-0.275,0.59-0.413c0.345-0.243,0.687-0.487,1.021-0.735c0.206-0.153,0.409-0.309,0.611-0.464    c0.318-0.244,0.632-0.492,0.94-0.742c0.195-0.159,0.391-0.318,0.582-0.479c0.106-0.09,0.218-0.177,0.323-0.267    c0.138-0.118,0.264-0.244,0.399-0.363c0.325-0.287,0.646-0.577,0.957-0.872c0.214-0.201,0.424-0.404,0.631-0.609    c0.303-0.3,0.598-0.604,0.887-0.912c0.195-0.207,0.391-0.415,0.579-0.626c0.287-0.32,0.562-0.646,0.833-0.976    c0.171-0.207,0.346-0.412,0.511-0.622c0.282-0.36,0.548-0.729,0.812-1.099c0.11-0.155,0.232-0.303,0.339-0.459    c0.049-0.073,0.099-0.146,0.147-0.218c0.363-0.542,0.701-1.092,1.021-1.646c0.107-0.185,0.202-0.374,0.305-0.561    c0.204-0.371,0.404-0.744,0.589-1.121c0.111-0.226,0.212-0.454,0.316-0.682c0.157-0.346,0.311-0.692,0.453-1.042    c0.098-0.239,0.188-0.481,0.278-0.724c0.066-0.176,0.143-0.351,0.204-0.528c0.047-0.136,0.079-0.274,0.123-0.41    c0.132-0.399,0.251-0.801,0.362-1.205C698.257,332.783,698.334,332.509,698.4,332.231z"></path></g></g></g><g id="SvgjsG1178" featurekey="dYASrj-0" transform="matrix(3.331163396936795,0,0,3.331163396936795,-3.220567892807804,65.80783763962233)" fill="#000"><path d="M6.4258 20.18555 c-2.8809 0 -4.9902 -1.377 -5.459 -3.7207 l1.9824 -0.46875 c0.3125 1.6113 1.709 2.5391 3.5449 2.5391 c1.4746 0 2.8906 -0.60547 2.8613 -2.2656 c-0.019531 -1.6406 -1.7969 -2.0898 -3.6816 -2.6074 c-2.1387 -0.58594 -4.2773 -1.2598 -4.2773 -3.7988 c0 -2.5684 2.1191 -3.8574 4.6289 -3.8574 c2.4316 0 4.6191 1.0254 5.1367 3.3984 l-1.8848 0.47852 c-0.3418 -1.5332 -1.6211 -2.2168 -3.1641 -2.2168 c-1.3867 0 -2.7637 0.60547 -2.7637 2.1777 c0 1.4258 1.543 1.8457 3.291 2.3145 c2.1973 0.5957 4.7168 1.2793 4.7168 4.0527 c0 2.793 -2.3438 3.9746 -4.9316 3.9746 z M20.214871875 10.332 l1.875 0 l0 9.668 l-1.7871 0 l-0.048828 -1.25 c-0.61523 0.9082 -1.6504 1.4355 -2.9297 1.4355 c-2.041 0 -3.3887 -1.1816 -3.3887 -3.3496 l0 -6.5039 l1.8848 0 l0 6.0938 c0 1.5723 0.94727 2.1973 2.0508 2.1973 c1.2891 0 2.334 -0.77148 2.3438 -2.5879 l0 -5.7031 z M35.60553125 10.1367 c1.8555 0 3.1543 1.0938 3.1543 3.1152 l0 6.748 l-1.875 0 l0 -6.25 c0 -1.4258 -0.83984 -2.0508 -1.8066 -2.0508 c-1.1328 0 -2.0117 0.72266 -2.0117 2.4121 l0 5.8887 l-1.9043 0 l0 -6.1816 c0 -1.4648 -0.83008 -2.1191 -1.8359 -2.1191 c-1.1035 0 -2.0117 0.72266 -2.0117 2.4805 l0 5.8203 l-1.8652 0 l0 -9.668 l1.8652 0 l0 1.2305 c0.57617 -0.9082 1.5137 -1.4258 2.6758 -1.4258 c1.2598 0 2.2754 0.53711 2.7637 1.5625 c0.60547 -1.0254 1.6113 -1.5625 2.8516 -1.5625 z M52.1094375 10.1367 c1.8555 0 3.1543 1.0938 3.1543 3.1152 l0 6.748 l-1.875 0 l0 -6.25 c0 -1.4258 -0.83984 -2.0508 -1.8066 -2.0508 c-1.1328 0 -2.0117 0.72266 -2.0117 2.4121 l0 5.8887 l-1.9043 0 l0 -6.1816 c0 -1.4648 -0.83008 -2.1191 -1.8359 -2.1191 c-1.1035 0 -2.0117 0.72266 -2.0117 2.4805 l0 5.8203 l-1.8652 0 l0 -9.668 l1.8652 0 l0 1.2305 c0.57617 -0.9082 1.5137 -1.4258 2.6758 -1.4258 c1.2598 0 2.2754 0.53711 2.7637 1.5625 c0.60547 -1.0254 1.6113 -1.5625 2.8516 -1.5625 z M60.70314375 20.18555 c-1.5918 0 -2.959 -0.78125 -2.959 -2.6465 c0 -2.0215 1.6016 -2.6855 3.6719 -3.0469 l1.5234 -0.26367 c0.61523 -0.11719 0.87891 -0.41016 0.87891 -0.88867 c0 -1.3281 -0.99609 -1.7969 -2.0508 -1.7969 c-1.1133 0 -2.0313 0.49805 -2.1777 1.7676 l-1.6895 -0.3418 c0.3125 -1.9043 1.7285 -2.8125 3.9551 -2.8125 c1.9434 0 3.7695 0.77148 3.7695 3.3691 l0 3.916 c0 0.99609 0.2832 1.2402 0.9668 1.2402 l0.14648 0 l0 1.3184 l-0.9082 0 c-1.0156 0 -1.6797 -0.40039 -1.875 -1.2988 l-0.087891 0 c-0.77148 1.0645 -1.9824 1.4844 -3.1641 1.4844 z M61.13284375 18.6914 c1.6406 0 2.8223 -1.25 2.8223 -3.3008 l-2.5293 0.51758 c-1.2012 0.20508 -1.8555 0.60547 -1.8555 1.4844 c0 0.91797 0.69336 1.2988 1.5625 1.2988 z M70.8789125 12.011700000000001 c0.46875 -1.0254 1.6895 -1.7773 3.0762 -1.7871 l0 1.7383 c-1.9141 0 -3.0176 0.80078 -3.0176 2.9492 l0 5.0879 l-1.875 0 l0 -9.668 l1.8164 0 l0 1.6797 z M76.85545 8.193 c-0.66406 0 -1.2305 -0.54688 -1.2305 -1.2207 s0.56641 -1.2109 1.2305 -1.2109 c0.6543 0 1.2109 0.53711 1.2109 1.2109 s-0.55664 1.2207 -1.2109 1.2207 z M75.89845 20 l0 -9.668 l1.8848 0 l0 9.668 l-1.8848 0 z M87.724590625 10.332 l-4.9902 8.1641 l4.9707 0 l0 1.5039 l-7.7539 0 l4.9512 -8.1641 l-4.6484 0 l0 -1.5039 l7.4707 0 z M98.584078125 14.9805 l-0.029297 0.49805 l-7.4902 0 c0.068359 2.1387 1.416 3.1738 3.0176 3.1738 c1.1523 0 2.1094 -0.625 2.5977 -1.6699 l1.6992 0.33203 c-0.68359 1.7969 -2.3145 2.8711 -4.2773 2.8711 c-2.8711 0 -4.873 -1.8555 -4.873 -5.0195 s2.0508 -5.0293 4.8145 -5.0293 c2.627 0 4.5313 1.582 4.541 4.8438 z M94.052778125 11.5625 c-1.4941 0 -2.6172 0.80078 -2.9102 2.4902 l5.5566 0 c-0.15625 -1.6797 -1.2207 -2.4902 -2.6465 -2.4902 z M102.958990625 12.011700000000001 c0.46875 -1.0254 1.6895 -1.7773 3.0762 -1.7871 l0 1.7383 c-1.9141 0 -3.0176 0.80078 -3.0176 2.9492 l0 5.0879 l-1.875 0 l0 -9.668 l1.8164 0 l0 1.6797 z"></path></g></svg>